<svg version="1.1" viewBox="0.0 0.0 397.5590551181102 411.40944881889766" fill="none" stroke="none" stroke-linecap="square" stroke-miterlimit="10" xmlns:xlink="http://www.w3.org/1999/xlink" xmlns="http://www.w3.org/2000/svg"><clipPath id="p.0"><path d="m0 0l397.55905 0l0 411.40945l-397.55905 0l0 -411.40945z" clip-rule="nonzero"/></clipPath><g clip-path="url(#p.0)"><path fill="#000000" fill-opacity="0.0" d="m0 0l397.55905 0l0 411.40945l-397.55905 0z" fill-rule="evenodd"/><g filter="url(#shadowFilter-p.1)"><use xlink:href="#p.1" transform="matrix(1.0 0.0 0.0 1.0 0.0 21.0)"/></g><defs><filter id="shadowFilter-p.1" filterUnits="userSpaceOnUse"><feGaussianBlur in="SourceAlpha" stdDeviation="50.0" result="blur"/><feComponentTransfer in="blur" color-interpolation-filters="sRGB"><feFuncR type="linear" slope="0" intercept="1.0"/><feFuncG type="linear" slope="0" intercept="1.0"/><feFuncB type="linear" slope="0" intercept="1.0"/><feFuncA type="linear" slope="1.0" intercept="0"/></feComponentTransfer></filter></defs><g id="p.1"><path fill="#000000" fill-opacity="0.0" d="m26.829397 -86.784775l418.99213 0l0 584.9764l-418.99213 0z" fill-rule="evenodd"/><path fill="#ffffff" d="m152.03252 61.230816l152.43752 191.64062l0 -132.84375q0 -27.796875 -7.96875 -37.59375q-10.9375 -13.21875 -36.6875 -12.765625l0 -8.437504l102.078125 0l0 8.437504q-19.59375 2.5 -26.3125 6.5q-6.71875 3.984375 -10.484375 12.984375q-3.75 9.0 -3.75 30.875l0 257.25l-7.75 0l-208.95312 -257.25l0 196.40623q0 26.671875 12.1875 36.015625q12.187492 9.328125 27.921867 9.328125l7.28125 0l0 8.4375l-109.59375 0l0 -8.4375q25.515629 -0.21875 35.54688 -10.46875q10.03125 -10.265625 10.03125 -34.875l0 -218.06248l-6.609375 -8.203125q-9.796875 -12.296875 -17.328125 -16.171875q-7.515629 -3.875 -21.640629 -4.328125l0 -8.437504l109.59375 0z" fill-rule="nonzero"/></g></g></svg>